<svg width="110" height="70" viewBox="0 0 110 70" fill="none" xmlns="http://www.w3.org/2000/svg">
<path fill-rule="evenodd" clip-rule="evenodd" d="M53.2225 36.7823C52.9123 36.1968 52.7572 35.9041 52.5085 35.8662C52.2597 35.8283 52.0319 36.0543 51.5761 36.5062L38.4519 49.521C38.3076 49.6641 38.2355 49.7356 38.144 49.7733C38.0526 49.8109 37.951 49.8109 37.7478 49.8109H23.1691C22.5377 49.8109 22.2221 49.8109 22.0724 49.6039C21.9227 49.3968 22.0216 49.097 22.2195 48.4975L37.9329 0.890488C38.0423 0.55919 38.097 0.393541 38.2281 0.298731C38.3592 0.203922 38.5337 0.203922 38.8825 0.203922H57.1397C57.4486 0.203922 57.603 0.203922 57.7258 0.281957C57.8485 0.359992 57.9141 0.499824 58.0452 0.779489L59.7111 4.33343C59.9395 4.8208 60.0538 5.06449 60.2662 5.12936C60.4787 5.19422 60.7165 5.05172 61.1922 4.76673C66.1294 1.80875 76.6142 -2.16166 86.4823 1.42119C86.7854 1.53127 86.937 1.58631 87.0275 1.7155C87.1181 1.84469 87.1181 2.01029 87.1181 2.3415V16.8222C87.1181 17.7373 87.1181 18.1948 86.8798 18.3412C86.6414 18.4876 86.1938 18.2606 85.2984 17.8067C80.7205 15.4859 73.0447 15.7925 69.9999 23.1C68.2574 27.2821 71.6872 39.4158 85.5591 31.761C86.2706 31.3683 86.6264 31.172 86.8723 31.3171C87.1181 31.4622 87.1181 31.8569 87.1181 32.6462V48.0696C87.1181 48.4414 87.1181 48.6273 87.0104 48.7636C86.9026 48.8999 86.7266 48.9417 86.3746 49.0252C77.9711 51.0207 60.8802 51.2371 53.2225 36.7823ZM49.2073 21.9589C48.8701 20.5537 48.7014 19.851 48.3223 19.837C47.9432 19.8229 47.723 20.5111 47.2825 21.8875L43.6025 33.3876C43.4117 33.9839 43.3163 34.282 43.4661 34.4872C43.6159 34.6924 43.9289 34.6924 44.5549 34.6924H50.995C51.5795 34.6924 51.8717 34.6924 52.0218 34.502C52.172 34.3115 52.1038 34.0274 51.9674 33.459L49.2073 21.9589Z" fill="white"/>
<path d="M0 67.4919L3.91032 58.7145H5.13152L9.05418 67.4919H7.75896L4.26805 59.4167H4.76146L1.27055 67.4919H0ZM1.66528 65.2976L1.99833 64.2944H6.85848L7.21621 65.2976H1.66528ZM10.1696 67.4919V58.1878H11.3538V67.4919H10.1696ZM13.6148 67.4919V60.8462H14.799V67.4919H13.6148ZM14.2069 59.5672C13.9767 59.5672 13.7834 59.4919 13.6271 59.3414C13.4791 59.191 13.4051 59.0071 13.4051 58.7897C13.4051 58.564 13.4791 58.3759 13.6271 58.2255C13.7834 58.075 13.9767 57.9998 14.2069 57.9998C14.4372 57.9998 14.6263 58.075 14.7743 58.2255C14.9306 58.3676 15.0087 58.5473 15.0087 58.7646C15.0087 58.9904 14.9347 59.1826 14.7867 59.3414C14.6386 59.4919 14.4454 59.5672 14.2069 59.5672ZM18.935 67.5672C18.3922 67.5672 17.8742 67.4919 17.3807 67.3414C16.8956 67.191 16.5132 67.0071 16.2336 66.7897L16.727 65.8367C17.0066 66.029 17.352 66.192 17.7631 66.3258C18.1744 66.4595 18.5938 66.5264 19.0214 66.5264C19.5723 66.5264 19.9671 66.447 20.2056 66.2882C20.4523 66.1293 20.5756 65.9078 20.5756 65.6236C20.5756 65.4146 20.5016 65.2516 20.3536 65.1346C20.2056 65.0175 20.0082 64.9298 19.7615 64.8712C19.523 64.8127 19.2557 64.7625 18.9597 64.7208C18.6636 64.6706 18.3676 64.6121 18.0715 64.5452C17.7755 64.47 17.5041 64.3697 17.2574 64.2443C17.0107 64.1105 16.8133 63.9308 16.6653 63.7051C16.5173 63.471 16.4433 63.1617 16.4433 62.7772C16.4433 62.3759 16.5543 62.0248 16.7763 61.7239C16.9983 61.423 17.3109 61.1931 17.7138 61.0342C18.125 60.8671 18.6102 60.7835 19.1694 60.7835C19.597 60.7835 20.0288 60.8378 20.4646 60.9465C20.9087 61.0468 21.2705 61.1931 21.5501 61.3853L21.0444 62.3383C20.7483 62.1377 20.4399 61.9998 20.1192 61.9245C19.7985 61.8493 19.4778 61.8117 19.157 61.8117C18.639 61.8117 18.2525 61.8994 17.9975 62.075C17.7426 62.2422 17.6151 62.4595 17.6151 62.727C17.6151 62.9527 17.6891 63.1283 17.8372 63.2537C17.9934 63.3707 18.1908 63.4627 18.4293 63.5295C18.676 63.5964 18.9473 63.6549 19.2434 63.7051C19.5394 63.7469 19.8355 63.8054 20.1315 63.8806C20.4276 63.9475 20.6949 64.0436 20.9333 64.169C21.18 64.2944 21.3774 64.47 21.5254 64.6957C21.6817 64.9214 21.7598 65.2223 21.7598 65.5985C21.7598 65.9998 21.6447 66.3467 21.4144 66.6393C21.1842 66.9318 20.8593 67.1617 20.4399 67.3289C20.0205 67.4878 19.5189 67.5672 18.935 67.5672ZM26.7307 60.7835C27.2652 60.7835 27.734 60.8879 28.1369 61.0969C28.5481 61.3059 28.8688 61.6236 29.0991 62.0499C29.3293 62.4762 29.4445 63.0154 29.4445 63.6675V67.4919H28.2603V63.8054C28.2603 63.1617 28.104 62.6769 27.7916 62.3509C27.4873 62.0248 27.0555 61.8618 26.4963 61.8618C26.0769 61.8618 25.711 61.9454 25.3985 62.1126C25.086 62.2798 24.8434 62.5264 24.6707 62.8524C24.5062 63.1784 24.424 63.5839 24.424 64.0687V67.4919H23.2398V58.1878H24.424V62.6393L24.1896 62.1628C24.4034 61.7281 24.7324 61.3895 25.1765 61.1471C25.6205 60.9047 26.1386 60.7835 26.7307 60.7835ZM35.6944 67.4919V66.0875L35.6327 65.8242V63.4292C35.6327 62.9193 35.4847 62.5264 35.1886 62.2505C34.9008 61.9663 34.465 61.8242 33.8811 61.8242C33.4946 61.8242 33.1163 61.8911 32.7462 62.0248C32.3762 62.1502 32.0637 62.3216 31.8088 62.5389L31.3153 61.6361C31.6525 61.3603 32.0555 61.1513 32.5242 61.0092C33.0011 60.8587 33.4987 60.7835 34.0168 60.7835C34.9131 60.7835 35.6039 61.005 36.0891 61.448C36.5743 61.8911 36.8169 62.5682 36.8169 63.4794V67.4919H35.6944ZM33.548 67.5672C33.0628 67.5672 32.6352 67.4835 32.2652 67.3164C31.9033 67.1492 31.6237 66.9193 31.4264 66.6267C31.229 66.3258 31.1303 65.9872 31.1303 65.611C31.1303 65.2516 31.2125 64.9256 31.377 64.633C31.5497 64.3404 31.8252 64.1063 32.2035 63.9308C32.59 63.7552 33.1081 63.6675 33.7577 63.6675H35.8301V64.5327H33.8071C33.215 64.5327 32.8161 64.633 32.6106 64.8336C32.4049 65.0342 32.3022 65.2766 32.3022 65.5609C32.3022 65.8869 32.4296 66.1502 32.6846 66.3509C32.9395 66.5431 33.2931 66.6393 33.7454 66.6393C34.1895 66.6393 34.576 66.5389 34.9049 66.3383C35.2421 66.1377 35.4847 65.8451 35.6327 65.4606L35.8671 66.2882C35.7108 66.681 35.4354 66.9945 35.0406 67.2286C34.6459 67.4543 34.1483 67.5672 33.548 67.5672ZM42.4993 60.7835C43.0338 60.7835 43.5026 60.8879 43.9056 61.0969C44.3167 61.3059 44.6374 61.6236 44.8678 62.0499C45.0978 62.4762 45.2132 63.0154 45.2132 63.6675V67.4919H44.029V63.8054C44.029 63.1617 43.8726 62.6769 43.5602 62.3509C43.2559 62.0248 42.8241 61.8618 42.2649 61.8618C41.8455 61.8618 41.4796 61.9454 41.1671 62.1126C40.8546 62.2798 40.612 62.5264 40.4393 62.8524C40.2748 63.1784 40.1926 63.5839 40.1926 64.0687V67.4919H39.0084V60.8462H40.1432V62.6393L39.9582 62.1628C40.172 61.7281 40.501 61.3895 40.9451 61.1471C41.3891 60.9047 41.9072 60.7835 42.4993 60.7835ZM54.7511 67.5922C54.0933 67.5922 53.4845 67.4835 52.9254 67.2662C52.3743 67.0405 51.8932 66.727 51.4822 66.3258C51.0791 65.9161 50.7628 65.4397 50.5324 64.8963C50.302 64.353 50.187 63.7552 50.187 63.1032C50.187 62.4512 50.302 61.8535 50.5324 61.3101C50.7628 60.7667 51.0835 60.2944 51.4945 59.8932C51.9056 59.4836 52.3867 59.1701 52.9378 58.9527C53.4968 58.727 54.1057 58.6142 54.7634 58.6142C55.4295 58.6142 56.0423 58.7312 56.6014 58.9653C57.1688 59.191 57.6499 59.5295 58.0446 59.9809L57.2428 60.7709C56.9137 60.4198 56.5437 60.1607 56.1326 59.9935C55.7216 59.8179 55.2815 59.7302 54.8128 59.7302C54.3277 59.7302 53.8753 59.8138 53.4559 59.9809C53.0448 60.1481 52.6871 60.3822 52.3827 60.6831C52.0783 60.9841 51.8399 61.3435 51.6672 61.7615C51.5029 62.1711 51.4205 62.6183 51.4205 63.1032C51.4205 63.5881 51.5029 64.0395 51.6672 64.4574C51.8399 64.8671 52.0783 65.2223 52.3827 65.5233C52.6871 65.8242 53.0448 66.0583 53.4559 66.2255C53.8753 66.3926 54.3277 66.4762 54.8128 66.4762C55.2815 66.4762 55.7216 66.3926 56.1326 66.2255C56.5437 66.0499 56.9137 65.7824 57.2428 65.423L58.0446 66.2129C57.6499 66.6643 57.1688 67.0071 56.6014 67.2411C56.0423 67.4752 55.4256 67.5922 54.7511 67.5922ZM62.1545 67.5672C61.4968 67.5672 60.9131 67.4208 60.4029 67.1283C59.8932 66.8357 59.4901 66.4345 59.194 65.9245C58.898 65.4062 58.75 64.8211 58.75 64.169C58.75 63.5086 58.898 62.9235 59.194 62.4135C59.4901 61.9036 59.8932 61.5065 60.4029 61.2223C60.9131 60.9297 61.4968 60.7835 62.1545 60.7835C62.8043 60.7835 63.3841 60.9297 63.8938 61.2223C64.4119 61.5065 64.815 61.9036 65.1027 62.4135C65.3987 62.9151 65.5468 63.5003 65.5468 64.169C65.5468 64.8294 65.3987 65.4146 65.1027 65.9245C64.815 66.4345 64.4119 66.8357 63.8938 67.1283C63.3841 67.4208 62.8043 67.5672 62.1545 67.5672ZM62.1545 66.5139C62.5739 66.5139 62.9484 66.4177 63.2771 66.2255C63.6145 66.0332 63.8775 65.7615 64.0665 65.4104C64.256 65.0509 64.3502 64.6371 64.3502 64.169C64.3502 63.6925 64.256 63.2829 64.0665 62.9402C63.8775 62.5891 63.6145 62.3174 63.2771 62.1251C62.9484 61.9329 62.5739 61.8367 62.1545 61.8367C61.7351 61.8367 61.3611 61.9329 61.032 62.1251C60.7034 62.3174 60.4399 62.5891 60.2425 62.9402C60.0452 63.2829 59.9465 63.6925 59.9465 64.169C59.9465 64.6371 60.0452 65.0509 60.2425 65.4104C60.4399 65.7615 60.7034 66.0332 61.032 66.2255C61.3611 66.4177 61.7351 66.5139 62.1545 66.5139ZM75.3631 60.7835C75.8891 60.7835 76.3539 60.8879 76.757 61.0969C77.1597 61.3059 77.4724 61.6236 77.6945 62.0499C77.9244 62.4762 78.0399 63.0154 78.0399 63.6675V67.4919H76.8557V63.8054C76.8557 63.1617 76.7076 62.6769 76.4116 62.3509C76.1155 62.0248 75.7001 61.8618 75.1657 61.8618C74.771 61.8618 74.4256 61.9454 74.1296 62.1126C73.8335 62.2798 73.6031 62.5264 73.4388 62.8524C73.2824 63.1784 73.2044 63.5839 73.2044 64.0687V67.4919H72.0202V63.8054C72.0202 63.1617 71.8722 62.6769 71.5761 62.3509C71.288 62.0248 70.873 61.8618 70.3302 61.8618C69.9434 61.8618 69.6025 61.9454 69.3064 62.1126C69.0104 62.2798 68.78 62.5264 68.6156 62.8524C68.4509 63.1784 68.3689 63.5839 68.3689 64.0687V67.4919H67.1847V60.8462H68.3196V62.6142L68.1346 62.1628C68.3399 61.7281 68.6566 61.3895 69.0844 61.1471C69.5117 60.9047 70.0095 60.7835 70.577 60.7835C71.2017 60.7835 71.7404 60.9423 72.1929 61.2599C72.6449 61.5692 72.9409 62.0416 73.081 62.6769L72.6 62.4762C72.7973 61.9663 73.1427 61.5567 73.6361 61.2474C74.1295 60.9381 74.7049 60.7835 75.3631 60.7835ZM83.6851 67.5672C83.1423 67.5672 82.6445 67.4418 82.1925 67.191C81.7484 66.9318 81.3907 66.5515 81.1193 66.0499C80.8559 65.5483 80.7246 64.9214 80.7246 64.169C80.7246 63.4167 80.8519 62.7897 81.107 62.2882C81.37 61.7866 81.7237 61.4104 82.1678 61.1596C82.6198 60.9088 83.1256 60.7835 83.6851 60.7835C84.3265 60.7835 84.894 60.9256 85.3874 61.2098C85.8808 61.494 86.2711 61.8911 86.5592 62.401C86.8469 62.9026 86.991 63.4919 86.991 64.169C86.991 64.8462 86.8469 65.4397 86.5592 65.9496C86.2711 66.4595 85.8808 66.8566 85.3874 67.1408C84.894 67.4251 84.3265 67.5672 83.6851 67.5672ZM80.2188 69.9245V60.8462H81.3537V62.6393L81.2797 64.1816L81.403 65.7239V69.9245H80.2188ZM83.5864 66.5139C84.0058 66.5139 84.3798 66.4177 84.7089 66.2255C85.0459 66.0332 85.3089 65.7615 85.4984 65.4104C85.6957 65.0509 85.7944 64.6371 85.7944 64.169C85.7944 63.6925 85.6957 63.2829 85.4984 62.9402C85.3089 62.5891 85.0459 62.3174 84.7089 62.1251C84.3798 61.9329 84.0058 61.8367 83.5864 61.8367C83.1749 61.8367 82.8009 61.9329 82.4639 62.1251C82.1348 62.3174 81.8718 62.5891 81.6744 62.9402C81.485 63.2829 81.3907 63.6925 81.3907 64.169C81.3907 64.6371 81.485 65.0509 81.6744 65.4104C81.8718 65.7615 82.1348 66.0332 82.4639 66.2255C82.8009 66.4177 83.1749 66.5139 83.5864 66.5139ZM92.6252 67.4919V66.0875L92.5635 65.8242V63.4292C92.5635 62.9193 92.4155 62.5264 92.1194 62.2505C91.8317 61.9663 91.3956 61.8242 90.8119 61.8242C90.4255 61.8242 90.0471 61.8911 89.677 62.0248C89.3069 62.1502 88.9946 62.3216 88.7395 62.5389L88.2461 61.6361C88.5831 61.3603 88.9862 61.1513 89.455 61.0092C89.9321 60.8587 90.4295 60.7835 90.9475 60.7835C91.8441 60.7835 92.5348 61.005 93.0199 61.448C93.5049 61.8911 93.7477 62.5682 93.7477 63.4794V67.4919H92.6252ZM90.4788 67.5672C89.9938 67.5672 89.566 67.4835 89.1959 67.3164C88.8342 67.1492 88.5545 66.9193 88.3571 66.6267C88.1597 66.3258 88.0611 65.9872 88.0611 65.611C88.0611 65.2516 88.1434 64.9256 88.3078 64.633C88.4805 64.3404 88.7558 64.1063 89.1342 63.9308C89.5206 63.7552 90.0387 63.6675 90.6885 63.6675H92.7608V64.5327H90.7378C90.1457 64.5327 89.747 64.633 89.5413 64.8336C89.3356 65.0342 89.2329 65.2766 89.2329 65.5609C89.2329 65.8869 89.3602 66.1502 89.6153 66.3509C89.8704 66.5431 90.2237 66.6393 90.6762 66.6393C91.1202 66.6393 91.5066 66.5389 91.8357 66.3383C92.1727 66.1377 92.4155 65.8451 92.5635 65.4606L92.7979 66.2882C92.6415 66.681 92.3661 66.9945 91.9714 67.2286C91.5766 67.4543 91.0793 67.5672 90.4788 67.5672ZM99.4299 60.7835C99.9647 60.7835 100.433 60.8879 100.836 61.0969C101.248 61.3059 101.568 61.6236 101.798 62.0499C102.029 62.4762 102.144 63.0154 102.144 63.6675V67.4919H100.959V63.8054C100.959 63.1617 100.804 62.6769 100.491 62.3509C100.187 62.0248 99.755 61.8618 99.1955 61.8618C98.7761 61.8618 98.4105 61.9454 98.0977 62.1126C97.7853 62.2798 97.5426 62.5264 97.3699 62.8524C97.2056 63.1784 97.1232 63.5839 97.1232 64.0687V67.4919H95.939V60.8462H97.0738V62.6393L96.8888 62.1628C97.1029 61.7281 97.4316 61.3895 97.8756 61.1471C98.3197 60.9047 98.8378 60.7835 99.4299 60.7835ZM104.498 69.9998C104.186 69.9998 103.882 69.9454 103.586 69.8367C103.29 69.7364 103.035 69.586 102.821 69.3853L103.327 68.4825C103.491 68.6414 103.672 68.7625 103.869 68.8462C104.067 68.9298 104.276 68.9715 104.498 68.9715C104.787 68.9715 105.025 68.8963 105.214 68.7458C105.403 68.5954 105.58 68.3279 105.744 67.9433L106.151 67.028L106.275 66.8775L108.84 60.8462H110L106.83 68.1565C106.641 68.6246 106.427 68.9925 106.188 69.2599C105.958 69.5274 105.703 69.7155 105.424 69.8242C105.144 69.9412 104.836 69.9998 104.498 69.9998ZM106.053 67.7051L103.068 60.8462H104.301L106.842 66.7646L106.053 67.7051Z" fill="white"/>
<path d="M13 54.0002H97" stroke="#005E48" stroke-width="2"/>
</svg>
