<svg width="410" height="410" viewBox="0 0 410 410" fill="none" xmlns="http://www.w3.org/2000/svg">
<path d="M204.945 1L1 204.945L204.945 408.89L408.89 204.945L204.945 1Z" stroke="white"/>
<path d="M205 29L30 204.481L205 379.962L380 204.481L205 29Z" stroke="white" stroke-opacity="0.8"/>
<path d="M205 57L57 205L205 353L353 205L205 57Z" stroke="white" stroke-opacity="0.6"/>
<path d="M205 85L85 205L205 325L325 205L205 85Z" stroke="white" stroke-opacity="0.4"/>
<path d="M205 113L113 205L205 297L297 205L205 113Z" stroke="white" stroke-opacity="0.2"/>
<path d="M205 141L141 205L205 269L269 205L205 141Z" stroke="white" stroke-opacity="0.05"/>
</svg>
