<svg width="91" height="182" viewBox="0 0 91 182" fill="none" xmlns="http://www.w3.org/2000/svg">
<path d="M91 1L1 91L91 181L181 91L91 1Z" stroke="white"/>
<path d="M91.0243 13.3563L13.7975 90.7952L91.0243 168.234L168.251 90.7952L91.0243 13.3563Z" stroke="white" stroke-opacity="0.8"/>
<path d="M91.0243 25.7126L25.7126 91.0243L91.0243 156.336L156.336 91.0243L91.0243 25.7126Z" stroke="white" stroke-opacity="0.6"/>
<path d="M91.0243 38.0688L38.0688 91.0243L91.0243 143.98L143.98 91.0243L91.0243 38.0688Z" stroke="white" stroke-opacity="0.4"/>
<path d="M91.0242 50.425L50.425 91.0242L91.0242 131.623L131.623 91.0242L91.0242 50.425Z" stroke="white" stroke-opacity="0.2"/>
<path d="M91.0243 62.7814L62.7814 91.0243L91.0243 119.267L119.267 91.0243L91.0243 62.7814Z" stroke="white" stroke-opacity="0.05"/>
</svg>
