<svg width="91" height="182" viewBox="0 0 91 182" fill="none" xmlns="http://www.w3.org/2000/svg">
<path d="M0 1L-90 91L0 181L90 91L0 1Z" stroke="white"/>
<path d="M0.0242615 13.3563L-77.2025 90.7952L0.0242615 168.234L77.251 90.7952L0.0242615 13.3563Z" stroke="white" stroke-opacity="0.8"/>
<path d="M0.0243225 25.7126L-65.2874 91.0243L0.0243225 156.336L65.3361 91.0243L0.0243225 25.7126Z" stroke="white" stroke-opacity="0.6"/>
<path d="M0.0242462 38.0688L-52.9312 91.0243L0.0242462 143.98L52.9797 91.0243L0.0242462 38.0688Z" stroke="white" stroke-opacity="0.4"/>
<path d="M0.0242348 50.425L-40.575 91.0242L0.0242348 131.623L40.6234 91.0242L0.0242348 50.425Z" stroke="white" stroke-opacity="0.2"/>
<path d="M0.0243454 62.7814L-28.2186 91.0243L0.0243454 119.267L28.2673 91.0243L0.0243454 62.7814Z" stroke="white" stroke-opacity="0.05"/>
</svg>
