<svg width="79" height="50" viewBox="0 0 79 50" fill="none" xmlns="http://www.w3.org/2000/svg">
<path fill-rule="evenodd" clip-rule="evenodd" d="M38.2109 26.6315C37.8856 26.0486 37.723 25.7571 37.4773 25.7224C37.2315 25.6877 37.0047 25.9127 36.5511 26.3625L27.5492 35.2893C27.4049 35.4324 27.3328 35.5039 27.2413 35.5416C27.1499 35.5792 27.0483 35.5792 26.8451 35.5792H16.9446C16.3132 35.5792 15.9975 35.5792 15.8478 35.3722C15.6981 35.1651 15.7971 34.8654 15.995 34.2658L27.0302 0.832225C27.1396 0.500927 27.1942 0.335278 27.3254 0.240468C27.4565 0.145658 27.631 0.145658 27.9798 0.145658H40.6325C40.9414 0.145658 41.0958 0.145658 41.2185 0.223694C41.3413 0.301729 41.4069 0.441561 41.5379 0.721225L42.5091 2.79298C42.7369 3.27906 42.8509 3.52209 43.0602 3.58805C43.2695 3.65401 43.5119 3.51458 43.9969 3.2357C47.5992 1.16414 54.7826 -1.43003 61.591 0.950278C61.8922 1.05555 62.0427 1.10819 62.135 1.23818C62.2272 1.36817 62.2272 1.53423 62.2272 1.86637V11.391C62.2272 12.2954 62.2272 12.7476 62.0056 12.8961C61.784 13.0446 61.3091 12.8495 60.3595 12.4593C57.0551 11.1015 52.0533 11.5721 50 16.5C48.7747 19.4406 51.1296 27.8849 60.6551 22.9322C61.3825 22.554 61.7462 22.3649 61.9867 22.5109C62.2272 22.6569 62.2272 23.0492 62.2272 23.8337V34.1159C62.2272 34.4883 62.2272 34.6745 62.1179 34.8114C62.0087 34.9482 61.8339 34.9879 61.4844 35.0672C55.4828 36.4292 43.7055 36.477 38.2109 26.6315ZM35.3866 16.6787C35.0493 15.2734 34.8807 14.5708 34.5016 14.5567C34.1225 14.5427 33.9023 15.2309 33.4618 16.6073L31.264 23.4756C31.0732 24.0718 30.9778 24.3699 31.1276 24.5751C31.2773 24.7803 31.5904 24.7803 32.2164 24.7803H36.0626C36.6471 24.7803 36.9393 24.7803 37.0895 24.5899C37.2396 24.3995 37.1714 24.1153 37.035 23.547L35.3866 16.6787Z" fill="#005E48"/>
<path d="M0 48.2087L2.79309 41.9391H3.66537L6.46727 48.2087H5.54212L3.0486 42.4406H3.40104L0.907533 48.2087H0ZM1.18948 46.6413L1.42738 45.9248H4.89891L5.15443 46.6413H1.18948ZM7.26397 48.2087V41.5629H8.10983V48.2087H7.26397ZM9.72485 48.2087V43.4617H10.5707V48.2087H9.72485ZM10.1478 42.5481C9.98333 42.5481 9.84528 42.4944 9.73366 42.3869C9.62793 42.2794 9.57507 42.1481 9.57507 41.9928C9.57507 41.8316 9.62793 41.6973 9.73366 41.5898C9.84528 41.4823 9.98333 41.4286 10.1478 41.4286C10.3123 41.4286 10.4474 41.4823 10.5531 41.5898C10.6647 41.6913 10.7205 41.8197 10.7205 41.9749C10.7205 42.1361 10.6676 42.2735 10.5619 42.3869C10.4562 42.4944 10.3181 42.5481 10.1478 42.5481ZM13.525 48.2624C13.1373 48.2624 12.7673 48.2087 12.4148 48.1012C12.0683 47.9937 11.7951 47.8623 11.5954 47.7071L11.9478 47.0264C12.1476 47.1637 12.3943 47.2802 12.688 47.3757C12.9817 47.4713 13.2813 47.519 13.5867 47.519C13.9802 47.519 14.2622 47.4623 14.4325 47.3488C14.6088 47.2354 14.6969 47.0772 14.6969 46.8741C14.6969 46.7249 14.644 46.6084 14.5383 46.5248C14.4325 46.4413 14.2916 46.3786 14.1153 46.3368C13.945 46.2949 13.7541 46.2591 13.5426 46.2293C13.3312 46.1934 13.1197 46.1516 12.9082 46.1039C12.6968 46.0501 12.5029 45.9785 12.3267 45.8889C12.1505 45.7934 12.0095 45.665 11.9038 45.5038C11.798 45.3366 11.7452 45.1157 11.7452 44.841C11.7452 44.5544 11.8245 44.3036 11.9831 44.0887C12.1417 43.8737 12.3649 43.7095 12.6527 43.596C12.9464 43.4766 13.293 43.4169 13.6924 43.4169C13.9979 43.4169 14.3063 43.4557 14.6176 43.5334C14.9348 43.605 15.1932 43.7095 15.3929 43.8468L15.0317 44.5275C14.8202 44.3842 14.5999 44.2857 14.3709 44.232C14.1418 44.1782 13.9127 44.1514 13.6836 44.1514C13.3135 44.1514 13.0375 44.214 12.8554 44.3394C12.6733 44.4589 12.5822 44.6141 12.5822 44.8052C12.5822 44.9664 12.6351 45.0918 12.7408 45.1814C12.8524 45.2649 12.9934 45.3306 13.1638 45.3784C13.34 45.4262 13.5338 45.468 13.7453 45.5038C13.9567 45.5336 14.1682 45.5754 14.3797 45.6292C14.5911 45.6769 14.7821 45.7456 14.9524 45.8352C15.1286 45.9248 15.2696 46.0501 15.3753 46.2114C15.4869 46.3726 15.5427 46.5875 15.5427 46.8562C15.5427 47.1428 15.4605 47.3907 15.296 47.5996C15.1316 47.8086 14.8995 47.9728 14.5999 48.0922C14.3004 48.2057 13.9421 48.2624 13.525 48.2624ZM19.0934 43.4169C19.4752 43.4169 19.81 43.4916 20.0978 43.6408C20.3915 43.7901 20.6206 44.017 20.7851 44.3215C20.9495 44.6261 21.0318 45.0112 21.0318 45.4769V48.2087H20.1859V45.5754C20.1859 45.1157 20.0743 44.7694 19.8511 44.5365C19.6338 44.3036 19.3254 44.1872 18.926 44.1872C18.6264 44.1872 18.365 44.2469 18.1418 44.3663C17.9185 44.4857 17.7453 44.6619 17.6219 44.8947C17.5044 45.1276 17.4457 45.4172 17.4457 45.7635V48.2087H16.5999V41.5629H17.4457V44.7425L17.2783 44.4021C17.431 44.0916 17.666 43.8498 17.9832 43.6767C18.3004 43.5035 18.6704 43.4169 19.0934 43.4169ZM25.496 48.2087V47.2055L25.4519 47.0175V45.3067C25.4519 44.9425 25.3462 44.6619 25.1348 44.4648C24.9291 44.2618 24.6178 44.1603 24.2008 44.1603C23.9247 44.1603 23.6545 44.2081 23.3902 44.3036C23.1258 44.3932 22.9026 44.5156 22.7205 44.6708L22.3681 44.026C22.6089 43.8289 22.8968 43.6796 23.2316 43.5781C23.5722 43.4707 23.9276 43.4169 24.2977 43.4169C24.938 43.4169 25.4314 43.5751 25.778 43.8916C26.1245 44.2081 26.2978 44.6917 26.2978 45.3426V48.2087H25.496ZM23.9629 48.2624C23.6163 48.2624 23.3109 48.2027 23.0465 48.0833C22.7881 47.9639 22.5884 47.7996 22.4474 47.5907C22.3064 47.3757 22.2359 47.1339 22.2359 46.8652C22.2359 46.6084 22.2947 46.3756 22.4122 46.1666C22.5355 45.9576 22.7323 45.7904 23.0025 45.665C23.2786 45.5396 23.6486 45.4769 24.1127 45.4769H25.5929V46.0949H24.1479C23.725 46.0949 23.4401 46.1666 23.2933 46.3099C23.1464 46.4532 23.073 46.6263 23.073 46.8294C23.073 47.0622 23.164 47.2503 23.3461 47.3936C23.5282 47.531 23.7808 47.5996 24.1039 47.5996C24.4211 47.5996 24.6971 47.528 24.9321 47.3847C25.1729 47.2414 25.3462 47.0324 25.4519 46.7577L25.6194 47.3488C25.5077 47.6295 25.311 47.8534 25.029 48.0206C24.7471 48.1818 24.3917 48.2624 23.9629 48.2624ZM30.3567 43.4169C30.7385 43.4169 31.0733 43.4916 31.3612 43.6408C31.6548 43.7901 31.8838 44.017 32.0484 44.3215C32.2127 44.6261 32.2951 45.0112 32.2951 45.4769V48.2087H31.4493V45.5754C31.4493 45.1157 31.3376 44.7694 31.1144 44.5365C30.897 44.3036 30.5887 44.1872 30.1892 44.1872C29.8897 44.1872 29.6283 44.2469 29.4051 44.3663C29.1818 44.4857 29.0086 44.6619 28.8852 44.8947C28.7677 45.1276 28.709 45.4172 28.709 45.7635V48.2087H27.8631V43.4617H28.6737V44.7425L28.5416 44.4021C28.6943 44.0916 28.9293 43.8498 29.2465 43.6767C29.5637 43.5035 29.9337 43.4169 30.3567 43.4169ZM39.1079 48.2803C38.6381 48.2803 38.2032 48.2027 37.8039 48.0475C37.4102 47.8862 37.0666 47.6623 36.773 47.3757C36.4851 47.0831 36.2591 46.7428 36.0946 46.3547C35.93 45.9666 35.8479 45.5396 35.8479 45.0739C35.8479 44.6081 35.93 44.1812 36.0946 43.7931C36.2591 43.405 36.4882 43.0676 36.7818 42.781C37.0754 42.4884 37.419 42.2645 37.8127 42.1093C38.212 41.948 38.6469 41.8674 39.1167 41.8674C39.5925 41.8674 40.0302 41.951 40.4296 42.1182C40.8349 42.2794 41.1785 42.5213 41.4605 42.8437L40.8877 43.408C40.6527 43.1572 40.3883 42.9721 40.0947 42.8527C39.8012 42.7273 39.4868 42.6646 39.152 42.6646C38.8055 42.6646 38.4823 42.7243 38.1828 42.8437C37.8892 42.9631 37.6337 43.1303 37.4162 43.3453C37.1988 43.5602 37.0285 43.817 36.9052 44.1155C36.7878 44.4081 36.729 44.7275 36.729 45.0739C36.729 45.4202 36.7878 45.7426 36.9052 46.0412C37.0285 46.3338 37.1988 46.5875 37.4162 46.8025C37.6337 47.0175 37.8892 47.1847 38.1828 47.3041C38.4823 47.4235 38.8055 47.4832 39.152 47.4832C39.4868 47.4832 39.8012 47.4235 40.0947 47.3041C40.3883 47.1787 40.6527 46.9876 40.8877 46.7308L41.4605 47.2951C41.1785 47.6175 40.8349 47.8623 40.4296 48.0295C40.0302 48.1967 39.5897 48.2803 39.1079 48.2803ZM44.3961 48.2624C43.9263 48.2624 43.5093 48.1579 43.1449 47.9489C42.7808 47.74 42.4929 47.4533 42.2815 47.0891C42.07 46.7189 41.9643 46.3009 41.9643 45.8352C41.9643 45.3635 42.07 44.9455 42.2815 44.5813C42.4929 44.217 42.7808 43.9334 43.1449 43.7304C43.5093 43.5214 43.9263 43.4169 44.3961 43.4169C44.8602 43.4169 45.2744 43.5214 45.6384 43.7304C46.0085 43.9334 46.2964 44.217 46.5019 44.5813C46.7134 44.9395 46.8191 45.3575 46.8191 45.8352C46.8191 46.3069 46.7134 46.7249 46.5019 47.0891C46.2964 47.4533 46.0085 47.74 45.6384 47.9489C45.2744 48.1579 44.8602 48.2624 44.3961 48.2624ZM44.3961 47.5101C44.6957 47.5101 44.9631 47.4414 45.1979 47.3041C45.4389 47.1667 45.6268 46.9727 45.7618 46.7219C45.8971 46.4651 45.9644 46.1696 45.9644 45.8352C45.9644 45.4948 45.8971 45.2022 45.7618 44.9574C45.6268 44.7067 45.4389 44.5126 45.1979 44.3753C44.9631 44.2379 44.6957 44.1693 44.3961 44.1693C44.0965 44.1693 43.8294 44.2379 43.5943 44.3753C43.3595 44.5126 43.1714 44.7067 43.0304 44.9574C42.8894 45.2022 42.8189 45.4948 42.8189 45.8352C42.8189 46.1696 42.8894 46.4651 43.0304 46.7219C43.1714 46.9727 43.3595 47.1667 43.5943 47.3041C43.8294 47.4414 44.0965 47.5101 44.3961 47.5101ZM53.8308 43.4169C54.2065 43.4169 54.5385 43.4916 54.8264 43.6408C55.114 43.7901 55.3375 44.017 55.4961 44.3215C55.6603 44.6261 55.7428 45.0112 55.7428 45.4769V48.2087H54.8969V45.5754C54.8969 45.1157 54.7912 44.7694 54.5797 44.5365C54.3683 44.3036 54.0715 44.1872 53.6898 44.1872C53.4079 44.1872 53.1611 44.2469 52.9497 44.3663C52.7382 44.4857 52.5736 44.6619 52.4563 44.8947C52.3446 45.1276 52.2889 45.4172 52.2889 45.7635V48.2087H51.443V45.5754C51.443 45.1157 51.3373 44.7694 51.1258 44.5365C50.92 44.3036 50.6236 44.1872 50.2359 44.1872C49.9596 44.1872 49.716 44.2469 49.5046 44.3663C49.2931 44.4857 49.1285 44.6619 49.0112 44.8947C48.8935 45.1276 48.8349 45.4172 48.8349 45.7635V48.2087H47.9891V43.4617H48.7997V44.7246L48.6675 44.4021C48.8142 44.0916 49.0404 43.8498 49.346 43.6767C49.6512 43.5035 50.0068 43.4169 50.4121 43.4169C50.8583 43.4169 51.2432 43.5304 51.5664 43.7573C51.8892 43.9782 52.1007 44.3156 52.2007 44.7694L51.8571 44.6261C51.9981 44.2618 52.2448 43.9692 52.5972 43.7483C52.9497 43.5274 53.3606 43.4169 53.8308 43.4169ZM59.7751 48.2624C59.3874 48.2624 59.0318 48.1728 58.7089 47.9937C58.3917 47.8086 58.1362 47.5369 57.9424 47.1787C57.7542 46.8204 57.6604 46.3726 57.6604 45.8352C57.6604 45.2978 57.7514 44.85 57.9336 44.4917C58.1214 44.1334 58.3741 43.8647 58.6913 43.6856C59.0142 43.5065 59.3754 43.4169 59.7751 43.4169C60.2332 43.4169 60.6385 43.5184 60.991 43.7214C61.3434 43.9245 61.6222 44.2081 61.828 44.5723C62.0335 44.9306 62.1364 45.3515 62.1364 45.8352C62.1364 46.3188 62.0335 46.7428 61.828 47.107C61.6222 47.4713 61.3434 47.7549 60.991 47.9579C60.6385 48.1609 60.2332 48.2624 59.7751 48.2624ZM57.2992 49.9462V43.4617H58.1098V44.7425L58.0569 45.8441L58.145 46.9458V49.9462H57.2992ZM59.7046 47.5101C60.0041 47.5101 60.2713 47.4414 60.5064 47.3041C60.7471 47.1667 60.935 46.9727 61.0703 46.7219C61.2113 46.4651 61.2817 46.1696 61.2817 45.8352C61.2817 45.4948 61.2113 45.2022 61.0703 44.9574C60.935 44.7067 60.7471 44.5126 60.5064 44.3753C60.2713 44.2379 60.0041 44.1693 59.7046 44.1693C59.4107 44.1693 59.1435 44.2379 58.9028 44.3753C58.6677 44.5126 58.4798 44.7067 58.3389 44.9574C58.2036 45.2022 58.1362 45.4948 58.1362 45.8352C58.1362 46.1696 58.2036 46.4651 58.3389 46.7219C58.4798 46.9727 58.6677 47.1667 58.9028 47.3041C59.1435 47.4414 59.4107 47.5101 59.7046 47.5101ZM66.1608 48.2087V47.2055L66.1168 47.0175V45.3067C66.1168 44.9425 66.011 44.6619 65.7996 44.4648C65.5941 44.2618 65.2826 44.1603 64.8656 44.1603C64.5896 44.1603 64.3193 44.2081 64.055 44.3036C63.7907 44.3932 63.5676 44.5156 63.3854 44.6708L63.0329 44.026C63.2737 43.8289 63.5616 43.6796 63.8964 43.5781C64.2372 43.4707 64.5925 43.4169 64.9625 43.4169C65.6029 43.4169 66.0963 43.5751 66.4428 43.8916C66.7892 44.2081 66.9626 44.6917 66.9626 45.3426V48.2087H66.1608ZM64.6277 48.2624C64.2812 48.2624 63.9757 48.2027 63.7114 48.0833C63.453 47.9639 63.2532 47.7996 63.1122 47.5907C62.9712 47.3757 62.9008 47.1339 62.9008 46.8652C62.9008 46.6084 62.9596 46.3756 63.077 46.1666C63.2003 45.9576 63.397 45.7904 63.6673 45.665C63.9433 45.5396 64.3133 45.4769 64.7775 45.4769H66.2578V46.0949H64.8127C64.3898 46.0949 64.105 46.1666 63.9581 46.3099C63.8111 46.4532 63.7378 46.6263 63.7378 46.8294C63.7378 47.0622 63.8287 47.2503 64.0109 47.3936C64.1931 47.531 64.4455 47.5996 64.7687 47.5996C65.0859 47.5996 65.3619 47.528 65.5969 47.3847C65.8377 47.2414 66.011 47.0324 66.1168 46.7577L66.2842 47.3488C66.1725 47.6295 65.9758 47.8534 65.6938 48.0206C65.4119 48.1818 65.0566 48.2624 64.6277 48.2624ZM71.0213 43.4169C71.4034 43.4169 71.7382 43.4916 72.0258 43.6408C72.3197 43.7901 72.5488 44.017 72.7131 44.3215C72.8776 44.6261 72.9598 45.0112 72.9598 45.4769V48.2087H72.1139V45.5754C72.1139 45.1157 72.0025 44.7694 71.7791 44.5365C71.562 44.3036 71.2536 44.1872 70.8539 44.1872C70.5544 44.1872 70.2932 44.2469 70.0698 44.3663C69.8467 44.4857 69.6733 44.6619 69.5499 44.8947C69.4325 45.1276 69.3737 45.4172 69.3737 45.7635V48.2087H68.5278V43.4617H69.3384V44.7425L69.2063 44.4021C69.3592 44.0916 69.594 43.8498 69.9112 43.6767C70.2284 43.5035 70.5984 43.4169 71.0213 43.4169ZM74.6417 50C74.4186 50 74.2012 49.9612 73.9897 49.8836C73.7783 49.8119 73.5964 49.7044 73.4434 49.5611L73.8047 48.9162C73.9224 49.0297 74.0514 49.1163 74.1924 49.176C74.3333 49.2357 74.4831 49.2655 74.6417 49.2655C74.8475 49.2655 75.0178 49.2118 75.1528 49.1043C75.2881 48.9969 75.4143 48.8058 75.5316 48.5311L75.8224 47.8773L75.9105 47.7698L77.7432 43.4617H78.5714L76.307 48.6834C76.172 49.0177 76.0194 49.2805 75.8488 49.4715C75.6846 49.6626 75.5024 49.797 75.3026 49.8746C75.103 49.9582 74.8828 50 74.6417 50ZM75.7519 48.3609L73.6196 43.4617H74.5007L76.3158 47.6892L75.7519 48.3609Z" fill="#005E48"/>
<path d="M9.28571 38.5714H69.2857" stroke="#005E48" stroke-width="2"/>
</svg>
